<svg xmlns="http://www.w3.org/2000/svg" viewBox="0 0 24 24" fill="white">
  <path d="M12 0C5.37 0 0 5.37 0 12c0 5.3 3.438 9.8 8.205 11.385.6.113.82-.26.82-.577v-2.165c-3.338.724-4.033-1.61-4.033-1.61-.546-1.385-1.333-1.754-1.333-1.754-1.09-.744.083-.729.083-.729 1.205.085 1.84 1.236 1.84 1.236 1.07 1.835 2.805 1.305 3.49.998.107-.774.42-1.305.763-1.605-2.665-.303-5.467-1.332-5.467-5.93 0-1.31.47-2.384 1.236-3.227-.124-.303-.535-1.524.116-3.176 0 0 1.01-.324 3.3 1.23a11.524 11.524 0 013.003-.404c1.02.004 2.044.137 3.003.404 2.29-1.554 3.3-1.23 3.3-1.23.653 1.652.243 2.873.12 3.176.765.843 1.235 1.916 1.235 3.227 0 4.61-2.806 5.623-5.476 5.921.43.372.823 1.106.823 2.231v3.309c0 .319.217.694.824.577A12.01 12.01 0 0024 12c0-6.63-5.37-12-12-12z"/>
</svg>