<svg xmlns="http://www.w3.org/2000/svg" viewBox="0 0 24 24" fill="white">
  <path d="M20.451 20.451H16.65v-4.908c0-1.17-.02-2.677-1.631-2.677-1.632 0-1.883 1.276-1.883 2.594v4.99H9.334v-10h3.646v1.364h.05c.508-.96 1.748-1.978 3.596-1.978 3.847 0 4.558 2.532 4.558 5.823v5.79zM5.337 7.432c-1.173 0-2.127-.953-2.127-2.126S4.164 3.18 5.337 3.18c1.172 0 2.125.953 2.125 2.126 0 1.173-.953 2.126-2.125 2.126zm2.021 13.019H3.316v-10h4.042v10zM22.225 0H1.766C.789 0 0 .774 0 1.728v20.546C0 23.226.79 24 1.766 24h20.451C23.2 24 24 23.226 24 22.273V1.728C24 .774 23.2 0 22.225 0z"/>
</svg>